<svg xmlns="http://www.w3.org/2000/svg" xmlns:xlink="http://www.w3.org/1999/xlink" width="500" zoomAndPan="magnify" viewBox="0 0 375 374.999991" height="500" preserveAspectRatio="xMidYMid meet" version="1.0"><defs><clipPath id="bcc34b222c"><path d="M 158 47.917969 L 217 47.917969 L 217 107 L 158 107 Z M 158 47.917969 " clip-rule="nonzero"/></clipPath><clipPath id="285f8eaa60"><path d="M 279 239 L 337.5 239 L 337.5 297.667969 L 279 297.667969 Z M 279 239 " clip-rule="nonzero"/></clipPath><clipPath id="1fe1293a0e"><path d="M 37.5 239 L 97 239 L 97 297.667969 L 37.5 297.667969 Z M 37.5 239 " clip-rule="nonzero"/></clipPath></defs><rect x="-37.5" width="450" fill="#ffffff" y="-37.499999" height="449.999989" fill-opacity="1"/><rect x="-37.5" width="450" fill="#ffffff" y="-37.499999" height="449.999989" fill-opacity="1"/><path fill="#000000" d="M 187.546875 286.207031 C 176.902344 286.207031 166.570312 284.117188 156.824219 279.992188 C 147.425781 276.027344 138.988281 270.324219 131.742188 263.078125 C 124.496094 255.832031 118.8125 247.394531 114.824219 237.996094 C 110.703125 228.269531 108.613281 217.9375 108.613281 207.269531 C 108.613281 196.605469 110.703125 186.292969 114.824219 176.546875 C 118.792969 167.148438 124.496094 158.710938 131.742188 151.464844 C 138.988281 144.21875 147.425781 138.53125 156.824219 134.546875 C 166.550781 130.425781 176.882812 128.335938 187.546875 128.335938 C 198.214844 128.335938 208.527344 130.425781 218.273438 134.546875 C 227.671875 138.511719 236.109375 144.21875 243.355469 151.464844 C 250.601562 158.710938 256.285156 167.148438 260.273438 176.546875 C 264.394531 186.273438 266.484375 196.605469 266.484375 207.269531 C 266.484375 217.9375 264.394531 228.25 260.273438 237.996094 C 256.304688 247.394531 250.601562 255.832031 243.355469 263.078125 C 236.109375 270.324219 227.671875 276.007812 218.273438 279.992188 C 208.527344 284.113281 198.195312 286.207031 187.546875 286.207031 Z M 187.546875 137.75 C 168.972656 137.75 151.511719 144.980469 138.382812 158.125 C 125.257812 171.269531 118.011719 188.714844 118.011719 207.289062 C 118.011719 225.867188 125.238281 243.328125 138.382812 256.457031 C 151.53125 269.582031 168.972656 276.828125 187.546875 276.828125 C 206.125 276.828125 223.585938 269.601562 236.714844 256.457031 C 249.839844 243.308594 257.085938 225.867188 257.085938 207.289062 C 257.085938 188.714844 249.859375 171.25 236.714844 158.125 C 223.566406 145 206.125 137.75 187.546875 137.75 Z M 187.546875 137.75 " fill-opacity="1" fill-rule="evenodd"/><g clip-path="url(#bcc34b222c)"><path fill="#000000" d="M 187.546875 106.460938 C 171.433594 106.460938 158.308594 93.332031 158.308594 77.21875 C 158.308594 61.101562 171.433594 47.976562 187.550781 47.976562 C 203.664062 47.976562 216.789062 61.101562 216.789062 77.21875 C 216.789062 93.332031 203.664062 106.460938 187.546875 106.460938 Z M 187.546875 57.332031 C 176.589844 57.332031 167.683594 66.238281 167.683594 77.199219 C 167.683594 88.15625 176.589844 97.0625 187.546875 97.0625 C 198.507812 97.0625 207.414062 88.15625 207.414062 77.199219 C 207.414062 66.238281 198.507812 57.332031 187.546875 57.332031 Z M 187.546875 57.332031 " fill-opacity="1" fill-rule="evenodd"/></g><g clip-path="url(#285f8eaa60)"><path fill="#000000" d="M 308.324219 297.671875 C 292.207031 297.671875 279.082031 284.546875 279.082031 268.429688 C 279.082031 252.316406 292.207031 239.1875 308.324219 239.1875 C 324.4375 239.1875 337.566406 252.316406 337.566406 268.429688 C 337.566406 284.546875 324.4375 297.671875 308.324219 297.671875 Z M 308.324219 248.546875 C 297.367188 248.546875 288.457031 257.453125 288.457031 268.410156 C 288.457031 279.367188 297.367188 288.277344 308.324219 288.277344 C 319.28125 288.277344 328.1875 279.367188 328.1875 268.410156 C 328.1875 257.453125 319.28125 248.546875 308.324219 248.546875 Z M 308.324219 248.546875 " fill-opacity="1" fill-rule="evenodd"/></g><g clip-path="url(#1fe1293a0e)"><path fill="#000000" d="M 66.773438 297.671875 C 50.660156 297.671875 37.53125 284.546875 37.53125 268.429688 C 37.53125 252.316406 50.660156 239.1875 66.773438 239.1875 C 82.890625 239.1875 96.015625 252.316406 96.015625 268.429688 C 96.015625 284.546875 82.910156 297.671875 66.773438 297.671875 Z M 66.773438 248.546875 C 55.816406 248.546875 46.910156 257.453125 46.910156 268.410156 C 46.910156 279.367188 55.816406 288.277344 66.773438 288.277344 C 77.730469 288.277344 86.640625 279.367188 86.640625 268.410156 C 86.640625 257.453125 77.730469 248.546875 66.773438 248.546875 Z M 66.773438 248.546875 " fill-opacity="1" fill-rule="evenodd"/></g><path fill="#000000" d="M 187.546875 243.484375 C 167.585938 243.484375 151.351562 227.253906 151.351562 207.289062 C 151.351562 187.328125 167.585938 171.09375 187.546875 171.09375 C 207.511719 171.09375 223.746094 187.328125 223.746094 207.289062 C 223.746094 227.253906 207.511719 243.484375 187.546875 243.484375 Z M 187.546875 180.472656 C 172.761719 180.472656 160.730469 192.503906 160.730469 207.289062 C 160.730469 222.078125 172.761719 234.109375 187.546875 234.109375 C 202.335938 234.109375 214.367188 222.078125 214.367188 207.289062 C 214.367188 192.503906 202.335938 180.472656 187.546875 180.472656 Z M 187.546875 180.472656 " fill-opacity="1" fill-rule="evenodd"/><path fill="#000000" d="M 283.769531 273.097656 L 91.328125 273.097656 C 89.648438 273.097656 88.105469 272.199219 87.265625 270.753906 C 86.425781 269.308594 86.425781 267.511719 87.265625 266.066406 L 183.484375 99.410156 C 184.324219 97.964844 185.867188 97.066406 187.550781 97.066406 C 189.230469 97.066406 190.773438 97.964844 191.613281 99.410156 L 287.832031 266.066406 C 288.671875 267.511719 288.671875 269.308594 287.832031 270.753906 C 286.992188 272.199219 285.449219 273.097656 283.769531 273.097656 Z M 99.453125 263.722656 L 275.644531 263.722656 L 187.546875 111.128906 Z M 99.453125 263.722656 " fill-opacity="1" fill-rule="evenodd"/><path fill="#000000" d="M 283.769531 273.117188 C 282.949219 273.117188 282.128906 272.902344 281.367188 272.453125 L 187.546875 216.257812 L 93.730469 272.433594 C 91.503906 273.761719 88.632812 273.039062 87.304688 270.8125 C 85.976562 268.585938 86.699219 265.714844 88.925781 264.386719 L 185.144531 206.742188 C 186.628906 205.863281 188.488281 205.863281 189.972656 206.742188 L 286.191406 264.386719 C 288.417969 265.714844 289.140625 268.605469 287.8125 270.8125 C 286.914062 272.296875 285.351562 273.117188 283.769531 273.117188 Z M 283.769531 273.117188 " fill-opacity="1" fill-rule="evenodd"/><path fill="#000000" d="M 187.546875 215.476562 C 184.949219 215.476562 182.859375 213.386719 182.859375 210.785156 L 182.859375 101.769531 C 182.859375 99.171875 184.949219 97.082031 187.546875 97.082031 C 190.148438 97.082031 192.238281 99.171875 192.238281 101.769531 L 192.238281 210.785156 C 192.238281 213.367188 190.148438 215.476562 187.546875 215.476562 Z M 187.546875 215.476562 " fill-opacity="1" fill-rule="evenodd"/></svg>